<?xml version="1.0" standalone="no"?> <!DOCTYPE svg PUBLIC "-//W3C//DTD SVG 1.0//EN" "http://www.w3.org/TR/2001/REC-SVG-20010904/DTD/svg10.dtd" > <svg xmlns="http://www.w3.org/2000/svg" width="100%" height="100%">
<defs >
<font horiz-adv-x="485" ><font-face
    font-family="Brasilia Short II"
    units-per-em="1000"
    panose-1="2 0 5 6 0 0 0 2 0 4"
    ascent="750"
    descent="-250"
    alphabetic="0" />
<missing-glyph horiz-adv-x="500" />
<glyph unicode=" " glyph-name="space" horiz-adv-x="300" />
<glyph unicode="!" glyph-name="exclam" horiz-adv-x="200" d="M-20 500H100V200H0V400H-20V500ZM0 100H100V0H0V100Z" />
<glyph unicode="&quot;" glyph-name="quotedbl" horiz-adv-x="350" d="M0 500H100V400L50 300V400H0V500ZM150 500H250V400L200 300V400H150V500Z" />
<glyph unicode="#" glyph-name="numbersign" horiz-adv-x="500" d="M0 400H50V500H150V400H250V500H350V400H400V300H350V200H400V100H350V0H250V100H150V0H50V100H0V200H50V300H0V400ZM150 200H250V300H150V200Z" />
<glyph unicode="$" glyph-name="dollar" horiz-adv-x="500" d="M150 0H100L0 100V140H100V140L140 100H260L300 140V160L260 200H100L0 300V400L100 500H150V600H250V500H300L400 400V360H300V360L260 400H140L100 360V340L140 300H300L400 200V100L300 0H250V-100H150V0Z"
/>
<glyph unicode="&amp;" glyph-name="ampersand" horiz-adv-x="700" d="M500 100L400 0H100L0 100V200L52 249L0 300V400L100 500H400L500 400V360H400V360L360 400H141L100 360V340L141 300H231V200H141L100 160V140L141 100H360L400 140V300H600V200H500V100Z" />
<glyph unicode="&apos;" glyph-name="quotesingle" horiz-adv-x="200" d="M0 500H100V400L50 300V400H0V500Z" />
<glyph unicode="(" glyph-name="parenleft" horiz-adv-x="300" d="M0 1V499L101 600H200V500H142L100 459V39L142 0H200V-100H101L0 1Z" />
<glyph unicode=")" glyph-name="parenright" horiz-adv-x="300" d="M99 -100H0V0H58L100 39V459L58 500H0V600H99L200 499V1L99 -100Z" />
<glyph unicode="*" glyph-name="asterisk" horiz-adv-x="500" d="M353 650L294 560H400V460H294L353 371L268 315L200 418L132 315L47 371L106 460H0V560H106L47 650L134 704L200 602L267 704L353 650Z" />
<glyph unicode="+" glyph-name="plus" horiz-adv-x="500" d="M0 400H150V544L250 545V400H400V300H250V144H150V300H0V400Z" />
<glyph unicode="," glyph-name="comma" horiz-adv-x="200" d="M0 100H100V0L50 -100V0H0V100Z" />
<glyph unicode="-" glyph-name="hyphen" horiz-adv-x="500" d="M0 300H400V200H0V300Z" />
<glyph unicode="." glyph-name="period" horiz-adv-x="200" d="M0 100H100V0H0V100Z" />
<glyph unicode="/" glyph-name="slash" horiz-adv-x="300" d="M100 601H200L100 -99H0L100 601Z" />
<glyph unicode="0" glyph-name="zero" horiz-adv-x="500" d="M400 100L300 0H100L0 100V400L100 500H300L400 400V100ZM141 400L100 360V140L141 100H260L300 140V360L260 400H141Z" />
<glyph unicode="1" glyph-name="one" horiz-adv-x="200" d="M-20 500H100V0H0V400H-20V500Z" />
<glyph unicode="2" glyph-name="two" horiz-adv-x="500" d="M100 160V100H400V0H100H0V200L100 300H260L300 340V360L260 400H140L100 360V330H0V400L100 500H300L400 400V300L300 200H140L100 160Z" />
<glyph unicode="3" glyph-name="three" horiz-adv-x="500" d="M400 100L300 0H100L0 100V160H100V140L140 100H260L300 140V160L260 200H100V300H260L300 340V360L260 400H140L100 360V340H0V400L100 500H300L400 400V300L349 249L400 200V100Z" />
<glyph unicode="4" glyph-name="four" horiz-adv-x="547" d="M0 500H100V200H300V500H400V200H447V100H400V0H300V100H0V500Z" />
<glyph unicode="5" glyph-name="five" horiz-adv-x="500" d="M300 0H100L0 100V140H100V140L140 100H260L300 140V160L260 200H140H100H0V500H347V400H100V300H300L400 200V100L300 0Z" />
<glyph unicode="6" glyph-name="six" horiz-adv-x="500" d="M0 400L100 500H300L400 400V350H300V360L260 400H141L100 360V300H300L400 200V100L300 0H100L0 100V400ZM260 200H141L100 160V140L141 100H260L300 140V160L260 200Z" />
<glyph unicode="7" glyph-name="seven" horiz-adv-x="500" d="M300 397V400H0V500H400V356L200 156V0H100V197L300 397Z" />
<glyph unicode="8" glyph-name="eight" horiz-adv-x="500" d="M400 300L349 249L400 200V100L300 0H100L0 100V200L49 249L0 300V400L100 500H300L400 400V300ZM140 200L100 160V140L140 100H260L300 140V160L260 200H140ZM140 400L100 360V340L140 300H260L300
340V360L260 400H140Z" />
<glyph unicode="9" glyph-name="nine" horiz-adv-x="500" d="M400 100L300 0H100L0 100V150H100V140L140 100H259L300 140V200H100L0 300V400L100 500H300L400 400V100ZM140 300H259L300 340V360L259 400H140L100 360V340L140 300Z" />
<glyph unicode=":" glyph-name="colon" horiz-adv-x="200" d="M0 100H100V0H0V100ZM0 300H100V200H0V300Z" />
<glyph unicode=";" glyph-name="semicolon" horiz-adv-x="200" d="M0 300H100V200H0V300ZM0 100H100V0L50 -100V0H0V100Z" />
<glyph unicode="&lt;" glyph-name="less" horiz-adv-x="300" d="M0 200L100 400H200L100 200L200 0H100L0 200Z" />
<glyph unicode="=" glyph-name="equal" horiz-adv-x="400" d="M0 400H300V300H0V400ZM0 200H300V100H0V200Z" />
<glyph unicode="&gt;" glyph-name="greater" horiz-adv-x="300" d="M100 100H0L100 300L0 500H100L200 300L100 100Z" />
<glyph unicode="?" glyph-name="question" horiz-adv-x="500" d="M250 298V200H150V350L300 500V560L260 600H140L100 560V500H0V600L100 700H300L400 600V460L250 298ZM150 100H250V0H150V100Z" />
<glyph unicode="@" glyph-name="at" horiz-adv-x="800" d="M449 249L400 200H300L200 300V400L300 500H400L500 400V340L540 300H560L600 340V560L560 600H140L100 560V140L140 100H600V0H100L0 100V600L100 700H600L700 600V300L600 200H500L449 249ZM400 340V360L360
400H340L300 360V340L340 300H360L400 340Z" />
<glyph unicode="A" glyph-name="A" horiz-adv-x="600" d="M500 400V0H400V200H100V0H0V400L100 500H400L500 400ZM100 300H400V360L360 400H142L100 358V300Z" />
<glyph unicode="B" glyph-name="B" horiz-adv-x="600" d="M-20 500H400L500 400V300L449 249L500 200V100L400 0H0V400H-20V500ZM400 140V160L360 200H100V100H360L400 140ZM400 340V360L360 400H100V300H360L400 340Z" />
<glyph unicode="C" glyph-name="C" horiz-adv-x="600" d="M500 200V100L400 0H100L0 100V400L100 500H400L500 400V300H400V360L360 400H140L100 360V140L140 100H360L400 140V200H500Z" />
<glyph unicode="D" glyph-name="D" horiz-adv-x="600" d="M-20 500H400L500 400V100L400 0H0V400H-20V500ZM100 400V100H360L400 140V360L360 400H100Z" />
<glyph unicode="E" glyph-name="E" horiz-adv-x="600" d="M-20 500H500V400H100V300H400V200H100V100H500V0H0V400H-20V500Z" />
<glyph unicode="F" glyph-name="F" horiz-adv-x="600" d="M-20 500H500V400H100V300H400V200H100V0H0V400H-20V500Z" />
<glyph unicode="G" glyph-name="G" horiz-adv-x="600" d="M300 300H500V100L400 0H100L0 100V400L100 500H400L500 400V360H400V360L360 400H140L100 360V140L140 100H360L400 140V200H300V300Z" />
<glyph unicode="H" glyph-name="H" horiz-adv-x="600" d="M-20 500H100V300H400V500H500V0H400V200H100V0H0V400H-20V500Z" />
<glyph unicode="I" glyph-name="I" horiz-adv-x="200" d="M-20 500H100V0H0V400H-20V500Z" />
<glyph unicode="J" glyph-name="J" horiz-adv-x="600" d="M380 500H500V100L400 0H100L0 100V200H100V140L140 100H360L400 140V400H380V500Z" />
<glyph unicode="K" glyph-name="K" horiz-adv-x="600" d="M-20 500H100V300H360L400 340V500H500V300L449 249L500 200V0H400V160L360 200H100V0H0V400H-20V500Z" />
<glyph unicode="L" glyph-name="L" horiz-adv-x="600" d="M-20 500H100V100H500V0H0V400H-20V500Z" />
<glyph unicode="M" glyph-name="M" horiz-adv-x="700" d="M-20 500H82L299 282L518 500H600V0H500V340L299 139L100 340V0H0V400H-20V500Z" />
<glyph unicode="N" glyph-name="N" horiz-adv-x="600" d="M-20 500H82L400 182V500H500V0H400V40L100 340V0H0V400H-20V500Z" />
<glyph unicode="O" glyph-name="O" horiz-adv-x="600" d="M500 100L400 0H100L0 100V400L100 500H400L500 400V100ZM140 400L100 360V140L140 100H360L400 140V360L360 400H140Z" />
<glyph unicode="P" glyph-name="P" horiz-adv-x="600" d="M-20 500H400L500 400V300L400 200H100V0H0V400H-20V500ZM400 340V360L360 400H100V300H360L400 340Z" />
<glyph unicode="Q" glyph-name="Q" horiz-adv-x="600" d="M500 100L400 0H300V-100H200V0H100L0 100V400L100 500H400L500 400V100ZM140 400L100 360V140L140 100H200V200H300V100H360L400 140V360L360 400H140Z" />
<glyph unicode="R" glyph-name="R" horiz-adv-x="600" d="M-20 500H400L500 400V300L449 249L500 200V0H400V160L360 200H100V0H0V400H-20V500ZM400 340V360L360 400H100V300H360L400 340Z" />
<glyph unicode="S" glyph-name="S" horiz-adv-x="600" d="M360 200H100L0 300V400L100 500H400L500 400V329H400V360L360 400H140L100 360V340L140 300H400L500 200V100L400 0H100L0 100V180H100V140L140 100H360L400 140V160L360 200Z" />
<glyph unicode="T" glyph-name="T" horiz-adv-x="600" d="M500 400H300V0H200V400H0V500H500V400Z" />
<glyph unicode="U" glyph-name="U" horiz-adv-x="600" d="M-20 500H100V140L140 100H360L400 140V500H500V100L400 0H100L0 100V400H-20V500Z" />
<glyph unicode="V" glyph-name="V" horiz-adv-x="600" d="M-20 500H100V294L250 142L400 294V500H500V252L250 0L0 252V400H-20V500Z" />
<glyph unicode="W" glyph-name="W" horiz-adv-x="800" d="M300 500H400V242L500 142L600 242V500H700V200L500 0L350 150L200 0L0 200V400H-20V500H100V242L200 142L300 242V500Z" />
<glyph unicode="X" glyph-name="X" horiz-adv-x="600" d="M500 458L321 279L500 100V0H400V58L250 208L100 58V0H0V100L179 279L0 458V458H-20V500H100V500L250 350L400 500V500H500V458Z" />
<glyph unicode="Y" glyph-name="Y" horiz-adv-x="600" d="M500 356L300 156V0H200V156L0 356V400H-20V500H100V398L250 248L400 398V500H500V356Z" />
<glyph unicode="Z" glyph-name="Z" horiz-adv-x="600" d="M0 58L340 400H0V500H500V400L185 100H500V0H0V58Z" />
<glyph unicode="[" glyph-name="bracketleft" horiz-adv-x="300" d="M0 0V600H200V500H100V0H200V-100H0V0Z" />
<glyph unicode="\" glyph-name="backslash" horiz-adv-x="300" d="M200 -99H100L0 601H100L200 -99Z" />
<glyph unicode="]" glyph-name="bracketright" horiz-adv-x="300" d="M200 -100H0V0H100V500H0V600H200V0V-100Z" />
<glyph unicode="^" glyph-name="asciicircum" horiz-adv-x="300" d="M0 374V474L100 500L200 474V374L100 400L0 374Z" />
<glyph unicode="_" glyph-name="underscore" horiz-adv-x="700" d="M0 -101H600V-200H0V-101Z" />
<glyph unicode="`" glyph-name="grave" horiz-adv-x="300" d="M0 700L200 647V547L0 600V700Z" />
<glyph unicode="a" glyph-name="a" horiz-adv-x="500" d="M400 400V0H300V200H100V0H0V400L100 500H300L400 400ZM100 300H300V360L260 400H142L100 358V300Z" />
<glyph unicode="b" glyph-name="b" horiz-adv-x="500" d="M-20 500H300L400 400V300L349 249L400 200V100L300 0H0V400H-20V500ZM300 140V160L260 200H100V100H260L300 140ZM300 340V360L260 400H100V300H260L300 340Z" />
<glyph unicode="c" glyph-name="c" horiz-adv-x="500" d="M400 200V100L300 0H100L0 100V400L100 500H300L400 400V300H300V360L260 400H140L100 360V140L140 100H260L300 140V200H400Z" />
<glyph unicode="d" glyph-name="d" horiz-adv-x="500" d="M-20 500H300L400 400V100L300 0H0V400H-20V500ZM100 400V100H260L300 140V360L260 400H100Z" />
<glyph unicode="e" glyph-name="e" horiz-adv-x="500" d="M-20 500H400V400H100V300H300V200H100V100H400V0H0V400H-20V500Z" />
<glyph unicode="f" glyph-name="f" horiz-adv-x="500" d="M-20 500H400V400H100V300H300V200H100V0H0V400H-20V500Z" />
<glyph unicode="g" glyph-name="g" horiz-adv-x="500" d="M200 300H400V100L300 0H100L0 100V400L100 500H300L400 400V360H300V360L260 400H140L100 360V140L140 100H260L300 140V200H200V300Z" />
<glyph unicode="h" glyph-name="h" horiz-adv-x="500" d="M-20 500H100V300H300V500H400V0H300V200H100V0H0V400H-20V500Z" />
<glyph unicode="i" glyph-name="i" horiz-adv-x="200" d="M-20 500H100V0H0V400H-20V500Z" />
<glyph unicode="j" glyph-name="j" horiz-adv-x="500" d="M280 500H400V100L300 0H100L0 100V200H100V140L140 100H260L300 140V400H280V500Z" />
<glyph unicode="k" glyph-name="k" horiz-adv-x="500" d="M-20 500H100V300H260L300 340V500H400V300L349 249L400 200V0H300V160L260 200H100V0H0V400H-20V500Z" />
<glyph unicode="l" glyph-name="l" horiz-adv-x="500" d="M-20 500H100V100H400V0H0V400H-20V500Z" />
<glyph unicode="m" glyph-name="m" horiz-adv-x="500" d="M200 239L100 340V0H0V400H-20V500H82L200 381L318 500H400V0H300V340L200 239Z" />
<glyph unicode="n" glyph-name="n" horiz-adv-x="500" d="M300 140L100 340V0H0V400H-20V500H82L300 282V500H400V0H300V140Z" />
<glyph unicode="o" glyph-name="o" horiz-adv-x="500" d="M400 100L300 0H100L0 100V400L100 500H300L400 400V100ZM140 400L100 360V140L140 100H260L300 140V360L260 400H140Z" />
<glyph unicode="p" glyph-name="p" horiz-adv-x="500" d="M-20 500H300L400 400V300L300 200H100V0H0V400H-20V500ZM300 340V360L260 400H100V300H260L300 340Z" />
<glyph unicode="q" glyph-name="q" horiz-adv-x="500" d="M400 100L300 0H250V-100H150V0H100L0 100V400L100 500H300L400 400V100ZM140 400L100 360V140L140 100H150V200H250V100H260L300 140V360L260 400H140Z" />
<glyph unicode="r" glyph-name="r" horiz-adv-x="500" d="M-20 500H300L400 400V300L349 249L400 200V0H300V160L260 200H100V0H0V400H-20V500ZM300 340V360L260 400H100V300H260L300 340Z" />
<glyph unicode="s" glyph-name="s" horiz-adv-x="500" d="M260 200H100L0 300V400L100 500H300L400 400V330H300V360L260 400H140L100 360V340L140 300H300L400 200V100L300 0H100L0 100V170H100V140L140 100H260L300 140V160L260 200Z" />
<glyph unicode="t" glyph-name="t" horiz-adv-x="500" d="M400 400H250V0H150V400H0V500H400V400Z" />
<glyph unicode="u" glyph-name="u" horiz-adv-x="500" d="M-20 500H100V140L140 100H260L300 140V500H400V100L300 0H100L0 100V400H-20V500Z" />
<glyph unicode="v" glyph-name="v" horiz-adv-x="500" d="M0 202V400H-20V500H100V244L200 142L300 244V500H400V202L200 0L0 202Z" />
<glyph unicode="w" glyph-name="w" horiz-adv-x="600" d="M350 0L250 100L150 0L0 150V400H-20V500H100V192L150 142L200 192V500H300V192L350 142L400 192V500H500V150L350 0Z" />
<glyph unicode="x" glyph-name="x" horiz-adv-x="500" d="M-20 500H100V453L200 353L300 453V500H400V411L270 281L400 153V0H300V111L200 211L100 111V0H0V153L128 281L11 400H-20V500Z" />
<glyph unicode="y" glyph-name="y" horiz-adv-x="500" d="M-20 500H100V398L200 298L300 398V500H400V356L250 207V0H150V205L0 356V400H-20V500Z" />
<glyph unicode="z" glyph-name="z" horiz-adv-x="500" d="M0 100L300 400H0V500H400V360L140 100H400V0H0V100Z" />
<glyph unicode="{" glyph-name="braceleft" horiz-adv-x="340" d="M0 199V300L40 340V500L140 600H240V500H180L140 460V300L89 250L140 199V40L180 0H240V-100H140L40 0V160L0 199Z" />
<glyph unicode="|" glyph-name="bar" horiz-adv-x="200" d="M100 600V-100H0V600H100Z" />
<glyph unicode="}" glyph-name="braceright" horiz-adv-x="340" d="M200 160V0L100 -100H0V0H60L100 40V199L151 250L100 300V460L60 500H0V600H100L200 500V340L240 300V199L200 160Z" />
<glyph unicode="~" glyph-name="asciitilde" horiz-adv-x="400" d="M103 598L0 584V683L103 701L205 687L300 701V602L205 584L103 598Z" />
</font>
</defs>
</svg>
