<svg id="Calque_1" data-name="Calque 1" xmlns="http://www.w3.org/2000/svg" viewBox="0 0 187.09 56.69"><defs><style>.cls-1{fill:none}.cls-2{fill:#fff}.cls-3{fill:#e30613}</style></defs><title>HEIG-VD_LogoRVB</title><path class="cls-1" d="M0 0h187.09v56.69H0z"/><path class="cls-2" d="M42 11.69v-.55a5.1 5.1 0 0 1 .82-.13v-2.5h-3.57V11a5.22 5.22 0 0 1 .83.13v.55h-2.65v-.54a4.77 4.77 0 0 1 .89-.14V5.48a4.74 4.74 0 0 1-.89-.14V4.8h2.64v.55a5.17 5.17 0 0 1-.83.13v2.24h3.52V5.48a5 5 0 0 1-.76-.13V4.8h2.63v.54a4.74 4.74 0 0 1-.89.14V11a4.77 4.77 0 0 1 .89.14v.54zm7.7 0v-.54a5.16 5.16 0 0 1 .81-.13l-.4-1.1h-2.89l-.4 1.1a5.17 5.17 0 0 1 .81.13v.54h-2.39v-.55a4.43 4.43 0 0 1 .62-.11l2.29-6.23h1.1l2.3 6.2a4.43 4.43 0 0 1 .62.11v.55zM49 6.77a7.43 7.43 0 0 1-.31-1 8.58 8.58 0 0 1-.32 1l-.87 2.39h2.4zm9.31-1.29v3.58a2.43 2.43 0 0 1-2.75 2.73c-2.15 0-2.58-1.19-2.58-2.42V5.48a4.77 4.77 0 0 1-.7-.13V4.8h2.45v.55a5 5 0 0 1-.82.13V9.3c0 .95.33 1.71 1.72 1.71 1.19 0 1.77-.5 1.77-1.89V5.48a5.23 5.23 0 0 1-.82-.13V4.8H59v.55a5 5 0 0 1-.69.13zm6.82 1.03h-.64c-.06-.4-.12-.69-.14-.95h-1.42V11a4.76 4.76 0 0 1 .89.14v.54h-2.71v-.54A4.77 4.77 0 0 1 62 11V5.56h-1.42c0 .26-.07.55-.14.95h-.64V4.8h5.34zm.79 5.18v-.54a4.78 4.78 0 0 1 .88-.15V5.48a4.74 4.74 0 0 1-.89-.14V4.8h4.45v1.59h-.65c-.06-.32-.11-.62-.13-.86h-1.85V7.8h1.47a6.12 6.12 0 0 1 .14-.7h.57v2.09h-.57a5 5 0 0 1-.14-.7h-1.47v2.45h1.86c0-.27.08-.57.14-.88h.65v1.63zm8.25 0v-.54a4.77 4.77 0 0 1 .89-.14V5.48a4.74 4.74 0 0 1-.89-.14V4.8h4.45v1.59H78c-.06-.32-.11-.62-.13-.86H76V7.8h1.47a6.08 6.08 0 0 1 .14-.7h.57v2.09h-.58a5 5 0 0 1-.14-.7H76v2.45h1.86c0-.27.08-.57.14-.88h.65v1.63zm2.33-7.43l-.37-.51 1.45-1.13.46.63zm7.93 2.34a9 9 0 0 1-.13-.92 4 4 0 0 0-1-.12c-1.49 0-2.16 1.17-2.16 2.71s.71 2.66 2.39 2.66a3.93 3.93 0 0 0 1.6-.36l.06.86a5.52 5.52 0 0 1-1.9.35c-2.11 0-3.18-1.25-3.18-3.36s1-3.7 3.4-3.7a7.19 7.19 0 0 1 1.61.2V6.6zm4.81 5.19c-2.07 0-3.07-1.38-3.07-3.47a3.29 3.29 0 0 1 3.27-3.62c1.86 0 3.07 1.2 3.07 3.47a3.29 3.29 0 0 1-3.27 3.62zm.09-6.27c-1.14 0-2.16.93-2.16 2.66S87.86 11 89.32 11c1.12 0 2.18-.9 2.18-2.67s-.79-2.81-2.17-2.81zm4.2 6.17v-.54a4.77 4.77 0 0 1 .89-.14V5.48a4.74 4.74 0 0 1-.89-.14V4.8h2.71v.54a4.74 4.74 0 0 1-.89.14v5.44h1.77c0-.27.09-.6.15-.93h.64v1.69zm5.1 0v-.54a4.78 4.78 0 0 1 .89-.14V5.48a4.74 4.74 0 0 1-.89-.14V4.8h4.45v1.59h-.65c-.06-.32-.11-.62-.13-.86h-1.85V7.8h1.47a6.12 6.12 0 0 1 .14-.7h.57v2.09h-.57a5 5 0 0 1-.14-.7h-1.47v2.45h1.86c0-.27.08-.57.14-.88h.65v1.63zM40.05 23.13h-2.63v-.54a4.77 4.77 0 0 1 .89-.14v-5.57a4.73 4.73 0 0 1-.89-.14v-.54h2.94c2.22 0 3.53 1 3.53 3.4s-1.58 3.53-3.84 3.53zm.23-6.2h-1v5.31a6.77 6.77 0 0 0 .92.06 2.47 2.47 0 0 0 2.75-2.7c-.04-1.73-.87-2.67-2.66-2.67zm4.79 1.3c.65-.7.67-1.16.44-1.46a.56.56 0 0 1 .45-.92c.75 0 1.09 1.29-.49 2.74zm3.16 4.86v-.54a4.77 4.77 0 0 1 .89-.14v-5.53a4.73 4.73 0 0 1-.89-.14v-.54h2.71v.54a4.73 4.73 0 0 1-.89.14v5.52a4.77 4.77 0 0 1 .89.14v.54zm10.16-6.2v6.2h-1.22l-2.67-4.27a15.58 15.58 0 0 1-.78-1.43c.07 1.18.06 3 .06 5a5.07 5.07 0 0 1 .82.14v.55H52v-.54a4.76 4.76 0 0 1 .89-.15v-5.51a4.73 4.73 0 0 1-.89-.14v-.54h2.12l2.63 4.23c.3.48.54.94.81 1.43-.07-1.15-.07-3-.07-5a4.77 4.77 0 0 1-.8-.14v-.55h2.41v.55a4.75 4.75 0 0 1-.71.17zm7.42 3.37v2.52a6.81 6.81 0 0 1-2.28.4 3.16 3.16 0 0 1-3.42-3.4 3.49 3.49 0 0 1 3.71-3.67 7.6 7.6 0 0 1 1.86.25V18H65a8.75 8.75 0 0 1-.12-.91 4.52 4.52 0 0 0-1.14-.15 2.52 2.52 0 0 0-2.62 2.76 2.42 2.42 0 0 0 2.55 2.7 4 4 0 0 0 1.21-.18v-1.96a5.46 5.46 0 0 1-.88-.13v-.55h2.48v.56a6.55 6.55 0 0 1-.67.12zm1.55 2.83v-.54a4.77 4.77 0 0 1 .89-.14v-5.53a4.73 4.73 0 0 1-.89-.14v-.54h4.45v1.59h-.65c-.06-.32-.11-.62-.13-.86h-1.85v2.27h1.47a6.11 6.11 0 0 1 .14-.7h.57v2.09h-.57a5 5 0 0 1-.14-.7h-1.47v2.45H71c0-.27.08-.57.14-.88h.65v1.63zm2.33-7.43l-.37-.51L70.77 14l.46.63zm9.79 1.23v6.2h-1.23l-2.66-4.27a15.6 15.6 0 0 1-.78-1.43c.07 1.18.06 3 .06 5a5.07 5.07 0 0 1 .82.14v.55h-2.61v-.54a4.76 4.76 0 0 1 .89-.15v-5.51a4.73 4.73 0 0 1-.89-.14v-.54h2.12l2.63 4.23c.3.48.54.94.81 1.43-.07-1.15-.07-3-.07-5a4.77 4.77 0 0 1-.8-.14v-.55h2.41v.55a4.75 4.75 0 0 1-.7.17zm1.75 6.2v-.54a4.77 4.77 0 0 1 .89-.14v-5.53a4.73 4.73 0 0 1-.89-.14v-.54h2.71v.54a4.73 4.73 0 0 1-.89.14v5.52a4.77 4.77 0 0 1 .89.14v.54zm3.77 0v-.54a4.77 4.77 0 0 1 .89-.14v-5.53a4.73 4.73 0 0 1-.89-.14v-.54h4.45v1.59h-.65c-.06-.32-.11-.62-.13-.86h-1.88v2.27h1.47a6.09 6.09 0 0 1 .14-.7h.6v2.09h-.57a5 5 0 0 1-.14-.7h-1.5v2.45h1.86c0-.27.08-.57.14-.88h.65v1.63zm9.69 0l-2-3.09h-.17v2.4a4.65 4.65 0 0 1 .77.13v.55H90.7v-.54a4.77 4.77 0 0 1 .89-.14v-5.52a4.73 4.73 0 0 1-.89-.14v-.54h2.62c1.36 0 2.34.48 2.34 1.8a2 2 0 0 1-2 1.92 6.87 6.87 0 0 1 .45.62l1.3 1.9c.23 0 .51.07.79.13v.56zm-1.54-6.17h-.63v2.35h.59c1 0 1.56-.5 1.56-1.24s-.53-1.11-1.52-1.11zM97 23.09v-.54a4.77 4.77 0 0 1 .89-.14v-5.53a4.73 4.73 0 0 1-.89-.14v-.54h2.71v.54a4.73 4.73 0 0 1-.89.14v5.52a4.77 4.77 0 0 1 .89.14v.54zm3.78 0v-.54a4.77 4.77 0 0 1 .89-.14v-5.53a4.73 4.73 0 0 1-.89-.14v-.54h4.45v1.59h-.65c-.06-.32-.11-.62-.13-.86h-1.85v2.27h1.47a6.11 6.11 0 0 1 .14-.7h.57v2.09h-.57a5 5 0 0 1-.14-.7h-1.47v2.45h1.86c0-.27.08-.57.14-.88h.65v1.63zm8.22 0v-.54a4.77 4.77 0 0 1 .89-.14v-5.53a4.73 4.73 0 0 1-.89-.14v-.54h4.45v1.59h-.65c-.06-.32-.11-.62-.13-.86h-1.85v2.27h1.47a6.07 6.07 0 0 1 .14-.7h.57v2.09h-.57a5 5 0 0 1-.14-.7h-1.47v2.45h1.86c0-.27.08-.57.14-.88h.65v1.63zm11-5.18h-.64c-.06-.4-.12-.69-.14-.95h-1.42v5.44a4.76 4.76 0 0 1 .89.14v.54H116v-.54a4.77 4.77 0 0 1 .89-.14V17h-1.42c0 .26-.07.55-.14.95h-.64v-1.76H120zm5.95 5.22h-2.63v-.54a4.77 4.77 0 0 1 .89-.14v-5.57a4.73 4.73 0 0 1-.89-.14v-.54h2.94c2.22 0 3.53 1 3.53 3.4s-1.58 3.53-3.84 3.53zm.23-6.2h-1v5.31a6.77 6.77 0 0 0 .92.06 2.47 2.47 0 0 0 2.75-2.7c-.04-1.73-.85-2.67-2.67-2.67zm4.68 6.16v-.54a4.77 4.77 0 0 1 .89-.14v-5.53a4.73 4.73 0 0 1-.89-.14v-.54h4.45v1.59h-.65c-.06-.32-.11-.62-.13-.86h-1.85v2.27h1.47a6.09 6.09 0 0 1 .14-.7h.57v2.09h-.57a5 5 0 0 1-.14-.7h-1.47v2.45h1.86c0-.27.08-.57.14-.88h.65v1.63zM145 20.26v2.52a6.81 6.81 0 0 1-2.28.4 3.16 3.16 0 0 1-3.42-3.4 3.49 3.49 0 0 1 3.7-3.68 7.6 7.6 0 0 1 1.86.25V18h-.67a8.63 8.63 0 0 1-.12-.91 4.52 4.52 0 0 0-1.14-.15 2.52 2.52 0 0 0-2.62 2.76 2.42 2.42 0 0 0 2.55 2.7 4 4 0 0 0 1.21-.18v-1.96a5.44 5.44 0 0 1-.88-.13v-.55h2.48v.56a6.52 6.52 0 0 1-.67.12zm1.51 2.83v-.54a4.76 4.76 0 0 1 .89-.14v-5.53a4.72 4.72 0 0 1-.89-.14v-.54H151v1.59h-.65c-.06-.32-.11-.62-.13-.86h-1.85v2.27h1.47a5.89 5.89 0 0 1 .14-.7h.57v2.09h-.57a5 5 0 0 1-.14-.7h-1.47v2.45h1.86c0-.27.08-.57.14-.88h.63v1.63zm7.49.09a5.92 5.92 0 0 1-1.47-.17v-1.64h.67c.06.34.1.64.13.91a3.26 3.26 0 0 0 .71.09c.84 0 1.52-.34 1.52-1.18 0-1.55-3.14-.92-3.14-3.13 0-1.13.9-1.95 2.44-1.95a7.06 7.06 0 0 1 1.33.13v1.58h-.67a8.9 8.9 0 0 1-.12-.89 3.12 3.12 0 0 0-.57-.05c-.94 0-1.42.43-1.42 1.07 0 1.49 3.14.94 3.14 3.1.05 1.24-.92 2.13-2.55 2.13zm8.8-5.27h-.64c-.06-.4-.12-.69-.14-.95h-1.42v5.44a4.78 4.78 0 0 1 .89.14v.54h-2.71v-.54a4.77 4.77 0 0 1 .89-.14V17h-1.42c0 .26-.07.55-.14.95h-.64v-1.76h5.34zm.79 5.18v-.54a4.76 4.76 0 0 1 .89-.14v-5.53a4.72 4.72 0 0 1-.89-.14v-.54h2.71v.54a4.73 4.73 0 0 1-.89.14v5.52a4.77 4.77 0 0 1 .89.14v.54zm6.79.1c-2.07 0-3.07-1.38-3.07-3.47a3.29 3.29 0 0 1 3.27-3.62c1.86 0 3.07 1.2 3.07 3.47a3.29 3.29 0 0 1-3.27 3.62zm.09-6.27c-1.14 0-2.16.93-2.16 2.66s.69 2.77 2.15 2.77c1.12 0 2.18-.9 2.18-2.67s-.78-2.76-2.16-2.76zm10.6-.03v6.2h-1.23l-2.66-4.27a15.59 15.59 0 0 1-.78-1.43c.07 1.18.06 3 .06 5a5.08 5.08 0 0 1 .82.14v.55h-2.61v-.54a4.75 4.75 0 0 1 .89-.15v-5.51a4.72 4.72 0 0 1-.89-.14v-.54h2.12l2.63 4.23c.3.48.54.94.81 1.43-.07-1.15-.07-3-.07-5a4.77 4.77 0 0 1-.8-.14v-.55h2.41v.55a4.73 4.73 0 0 1-.7.17zM40.05 34.51h-2.63v-.54a4.78 4.78 0 0 1 .89-.14v-5.57a4.73 4.73 0 0 1-.89-.14v-.54h2.94c2.22 0 3.53 1 3.53 3.4s-1.58 3.53-3.84 3.53zm.23-6.2h-1v5.31a6.77 6.77 0 0 0 .92.06A2.47 2.47 0 0 0 42.91 31c0-1.75-.83-2.69-2.62-2.69zM51 28.26v3.58a2.43 2.43 0 0 1-2.75 2.73c-2.15 0-2.58-1.19-2.58-2.42v-3.89a4.78 4.78 0 0 1-.7-.13v-.55h2.43v.55a5 5 0 0 1-.82.13v3.82c0 .95.33 1.71 1.72 1.71 1.19 0 1.77-.5 1.77-1.89v-3.64a5.23 5.23 0 0 1-.82-.13v-.55h2.44v.55a5 5 0 0 1-.69.13zm8.6 1.12a9 9 0 0 1-.13-.92 4 4 0 0 0-1-.12c-1.49 0-2.16 1.17-2.16 2.71s.71 2.66 2.39 2.66a3.93 3.93 0 0 0 1.6-.36l.06.86a5.52 5.52 0 0 1-1.9.35c-2.11 0-3.18-1.25-3.18-3.36s1-3.7 3.4-3.7a7.2 7.2 0 0 1 1.61.2v1.67zm5.85 5.09v-.54a5.16 5.16 0 0 1 .81-.13l-.4-1.1H63l-.4 1.1a5.16 5.16 0 0 1 .81.13v.54H61v-.55a4.4 4.4 0 0 1 .62-.11l2.29-6.23H65l2.3 6.23a4.41 4.41 0 0 1 .62.11v.55zm-.72-4.92a7.43 7.43 0 0 1-.31-1 8.58 8.58 0 0 1-.32 1l-.87 2.39h2.4zM75 28.27v6.2h-1.26l-2.67-4.27a15.59 15.59 0 0 1-.78-1.43c.07 1.18.06 3 .06 5a5.06 5.06 0 0 1 .82.14v.55h-2.61v-.54a4.76 4.76 0 0 1 .89-.15v-5.51a4.73 4.73 0 0 1-.89-.14v-.54h2.12l2.63 4.23c.3.48.54.94.81 1.43-.07-1.15-.07-3-.07-5a4.77 4.77 0 0 1-.8-.14v-.55h2.41v.55a4.76 4.76 0 0 1-.66.17zm6.78 1.02h-.64c-.06-.4-.12-.69-.14-.95h-1.43v5.44a4.77 4.77 0 0 1 .89.14v.54h-2.7v-.54a4.78 4.78 0 0 1 .89-.14v-5.44h-1.42c0 .26-.07.55-.14.95h-.64v-1.71h5.34zm3.73 5.28c-2.07 0-3.07-1.38-3.07-3.47a3.29 3.29 0 0 1 3.27-3.62c1.86 0 3.07 1.2 3.07 3.47a3.29 3.29 0 0 1-3.27 3.62zm.09-6.27c-1.14 0-2.16.93-2.16 2.66s.69 2.77 2.15 2.77c1.12 0 2.18-.9 2.18-2.67S87 28.3 85.6 28.3zm10.59-.03v6.2H95l-2.7-4.27a15.59 15.59 0 0 1-.78-1.43c.07 1.18.06 3 .06 5a5.06 5.06 0 0 1 .82.14v.55h-2.61v-.54a4.76 4.76 0 0 1 .89-.15v-5.51a4.73 4.73 0 0 1-.89-.14v-.54h2.12l2.63 4.23c.3.48.54.94.81 1.43-.07-1.15-.07-3-.07-5a4.77 4.77 0 0 1-.8-.14v-.55h2.42v.55a4.76 4.76 0 0 1-.71.17zm6.74 6.24h-2.63v-.54a4.79 4.79 0 0 1 .89-.14v-5.57a4.73 4.73 0 0 1-.89-.14v-.54h2.94c2.22 0 3.53 1 3.53 3.4s-1.59 3.53-3.84 3.53zm.23-6.2h-1v5.31a6.77 6.77 0 0 0 .92.06 2.47 2.47 0 0 0 2.7-2.68c0-1.75-.83-2.69-2.62-2.69zm4.68 6.16v-.54a4.78 4.78 0 0 1 .89-.14v-5.53a4.73 4.73 0 0 1-.89-.14v-.54h4.45v1.59h-.65c-.06-.32-.11-.62-.13-.86h-1.85v2.27h1.47a6.09 6.09 0 0 1 .14-.7h.57V32h-.57a5 5 0 0 1-.14-.7h-1.47v2.45h1.86c0-.27.08-.57.14-.88h.65v1.63zM118.8 32c.14.4.32.92.46 1.43.12-.49.28-.95.47-1.5l1.33-3.69a4.91 4.91 0 0 1-.81-.13v-.54h2.39v.55a3 3 0 0 1-.61.11l-2.28 6.23h-1.05l-2.21-6.23a3.06 3.06 0 0 1-.62-.11v-.55h2.46v.54a4.73 4.73 0 0 1-.81.13zm7.64 2.47v-.54a5.16 5.16 0 0 1 .81-.13l-.4-1.1H124l-.4 1.1a5.16 5.16 0 0 1 .81.13v.54H122v-.55a4.4 4.4 0 0 1 .62-.11l2.29-6.23H126l2.3 6.23a4.4 4.4 0 0 1 .62.11v.55zm-.72-4.92a7.43 7.43 0 0 1-.31-1 8.58 8.58 0 0 1-.32 1l-.87 2.39h2.4zm9.34-1.29v3.58a2.43 2.43 0 0 1-2.75 2.73c-2.15 0-2.58-1.19-2.58-2.42v-3.89a4.78 4.78 0 0 1-.7-.13v-.55h2.45v.55a5 5 0 0 1-.82.13v3.82c0 .95.33 1.71 1.72 1.71 1.19 0 1.77-.5 1.77-1.89v-3.64a5.23 5.23 0 0 1-.82-.13v-.55h2.44v.55a5 5 0 0 1-.71.13zm4.31 6.25h-2.63v-.54a4.78 4.78 0 0 1 .89-.14v-5.57a4.73 4.73 0 0 1-.89-.14v-.54h2.94c2.22 0 3.53 1 3.53 3.4s-1.59 3.53-3.84 3.53zm.23-6.2h-1v5.31a6.77 6.77 0 0 0 .92.06 2.47 2.47 0 0 0 2.7-2.68c0-1.75-.83-2.69-2.62-2.69zM45.18 47l-1.39 4.4h-1.05l-1-3a9.17 9.17 0 0 1-.29-1c-.11.45-.23.85-.37 1.28l-.85 2.73h-1.06L37.86 47a4.37 4.37 0 0 1-.65-.12v-.55h2.34v.55a3.07 3.07 0 0 1-.7.11l.62 2.28c.11.42.23.83.32 1.15a11.7 11.7 0 0 1 .35-1.25l.86-2.83h1l.92 2.85c.19.6.28.9.36 1.25.09-.36.18-.65.32-1.11l.66-2.33a3.16 3.16 0 0 1-.7-.11v-.55h2.28v.55a4.34 4.34 0 0 1-.66.11zm8.94 0l-1.39 4.4h-1.05l-1-3a9.15 9.15 0 0 1-.29-1c-.11.45-.23.85-.37 1.28l-.85 2.73h-1.06L46.8 47a4.37 4.37 0 0 1-.65-.12v-.55h2.34v.55a3.07 3.07 0 0 1-.7.11l.62 2.28c.11.42.23.83.32 1.15a11.7 11.7 0 0 1 .35-1.25l.92-2.83h.95l.92 2.85c.19.6.28.9.36 1.25.09-.36.18-.65.32-1.11L53.2 47a3.16 3.16 0 0 1-.7-.11v-.55h2.28v.55a4.34 4.34 0 0 1-.66.11zm8.94 0l-1.39 4.4h-1.05l-1-3a9.15 9.15 0 0 1-.29-1c-.11.45-.23.85-.37 1.28l-.85 2.73H57L55.74 47a4.37 4.37 0 0 1-.65-.12v-.55h2.34v.55a3.07 3.07 0 0 1-.7.11l.62 2.28c.11.42.23.83.32 1.15a11.7 11.7 0 0 1 .33-1.23l.91-2.85h.95l.92 2.85c.19.6.28.9.36 1.25.09-.36.18-.65.32-1.11l.68-2.33a3.17 3.17 0 0 1-.7-.11v-.55h2.28v.55a4.34 4.34 0 0 1-.66.11zm2.12 3.87a.63.63 0 1 1-.63-.63.64.64 0 0 1 .63.63zm5.06.54v-3.27c0-.71-.2-1.13-.87-1.13-.84 0-1.45.85-1.45 2v1.76a5.21 5.21 0 0 1 .83.13v.55h-2.63v-.54a4.77 4.77 0 0 1 .89-.14v-6.09c-.25 0-.59-.08-.89-.1V44a11.39 11.39 0 0 1 1.8-.07v2.4a5.18 5.18 0 0 1-.08 1 1.84 1.84 0 0 1 1.77-1.14c1.16 0 1.52.72 1.52 1.62v2.87a4.32 4.32 0 0 1 .86.14v.54zm6.84-2.59h-3.31c0 1.36.52 1.94 1.6 1.94a3.62 3.62 0 0 0 1.48-.32l.08.75a4.51 4.51 0 0 1-1.71.32c-1.56 0-2.4-.82-2.4-2.6 0-1.52.83-2.65 2.27-2.65a1.92 1.92 0 0 1 2 2.13 3.8 3.8 0 0 1-.01.43zm-2-1.9a1.28 1.28 0 0 0-1.24 1.25h2.37A1.1 1.1 0 0 0 75 46.92zm2.99 4.49v-.54a4.77 4.77 0 0 1 .89-.14v-3.68c-.25 0-.59-.08-.89-.1v-.54a11.43 11.43 0 0 1 1.81-.07v4.39a4.44 4.44 0 0 1 .86.14v.54zm1.36-5.91a.6.6 0 1 1 0-1.19.59.59 0 0 1 .6.59.61.61 0 0 1-.6.6zm4.27 8.56c-1.31 0-2.13-.52-2.13-1.49a1.5 1.5 0 0 1 .84-1.32.81.81 0 0 1-.5-.75 1 1 0 0 1 .56-.86 1.58 1.58 0 0 1-.75-1.45 2 2 0 0 1 2.24-2 3.39 3.39 0 0 1 .8.09h1.73V47h-.86a1.22 1.22 0 0 1 .43 1c0 1.08-.75 1.89-2.23 1.89a2.49 2.49 0 0 1-.63-.07.47.47 0 0 0-.32.43c0 .29.26.4.87.4h.94c1.1 0 1.73.53 1.73 1.42-.02 1.14-1.13 1.99-2.72 1.99zm.72-2.59h-1.31a1 1 0 0 0-.62.93c0 .6.57.93 1.36.93 1 0 1.64-.44 1.64-1.08-.01-.48-.35-.79-1.07-.79zm-.51-4.53a1.17 1.17 0 0 0-1.29 1.18 1.1 1.1 0 0 0 1.26 1.16 1.18 1.18 0 1 0 0-2.35zm3.58 2.28v-.73h2.41v.73zM95.58 47L94 51.41h-1.1L91.3 47a4.34 4.34 0 0 1-.65-.12v-.55H93v.55a3.26 3.26 0 0 1-.71.11l.85 2.49c.11.33.21.64.31 1 .09-.33.19-.66.3-1l.88-2.48a3.25 3.25 0 0 1-.73-.11v-.55h2.33v.55a4.34 4.34 0 0 1-.65.11zm4.58 4.41a6 6 0 0 1 .08-1 1.8 1.8 0 0 1-1.7 1.13c-1.25 0-1.87-.91-1.87-2.39a2.54 2.54 0 0 1 2.62-2.85 8.5 8.5 0 0 1 .86.05v-1.67c-.25 0-.59-.08-.89-.1V44a11.47 11.47 0 0 1 1.74 0v6.7c.25 0 .58.08.86.1v.54a10.7 10.7 0 0 1-1.7.07zm0-4.31a3.48 3.48 0 0 0-.9-.11c-1 0-1.61.58-1.61 2 0 1.09.36 1.71 1.12 1.71.92 0 1.39-1.07 1.39-2zm3.95 3.77a.63.63 0 1 1-.63-.63.64.64 0 0 1 .63.63zm3.44.61c-1.26 0-2.3-.57-2.3-2.44 0-1.63.83-2.78 2.55-2.78a4.31 4.31 0 0 1 1.21.17v1.48h-.57c-.06-.3-.1-.58-.13-.83a2 2 0 0 0-.63-.09c-.95 0-1.47.75-1.47 1.89s.34 1.81 1.53 1.81a2.9 2.9 0 0 0 1.25-.28l.06.8a4.44 4.44 0 0 1-1.5.27zm6.36-.07v-3.27c0-.71-.2-1.13-.87-1.13-.84 0-1.45.85-1.45 2v1.76a5.21 5.21 0 0 1 .83.13v.55h-2.62v-.54a4.78 4.78 0 0 1 .89-.14v-6.09c-.25 0-.59-.08-.89-.1V44a11.39 11.39 0 0 1 1.8-.07v2.4a5.18 5.18 0 0 1-.08 1 1.84 1.84 0 0 1 1.77-1.14c1.16 0 1.52.72 1.52 1.62v2.87a4.31 4.31 0 0 1 .86.14v.54z"/><path class="cls-3" d="M0 0h26.68v56.69H0z"/><path class="cls-2" d="M20.44 45.9h-5.91c-1.32 0-2.7.21-2.7 2.2a2.2 2.2 0 0 0 .49 1.54 2.82 2.82 0 0 0 2.17.8h5.95v1H8.08v-1h4.41A2.5 2.5 0 0 1 11 47.93a2.9 2.9 0 0 1 1-2.5 4.15 4.15 0 0 1 2.46-.51h5.95v1zm-8.65-6.21c-.05 2.67 3.23 2.7 3.45 2.7v-5.23s-3.4-.07-3.45 2.53zm4.27 2.75h.33a3 3 0 0 0 3.23-3.25 3.48 3.48 0 0 0-1.29-2.73l1.2.12a3.79 3.79 0 0 1 1 2.64c0 3.95-3.26 4.24-4.67 4.24S11 43 11 39.73s3.68-3.56 4.63-3.56h.46v6.27zm.48-18.73h-.95v-3.92h.95v3.92zM14.6 5.78a3.53 3.53 0 0 0-2.12.6 2.21 2.21 0 0 0-.68 1.72c0 1.69 1.78 2.64 4 2.62s4-.76 4-2.62a2.32 2.32 0 0 0-2.5-2.32zm6 2.44c0 2.46-2.19 3.5-4.85 3.5S11 10.32 11 8.15a2.39 2.39 0 0 1 1.33-2.37H8.05v-1h9.07a3.3 3.3 0 0 1 3.46 3.42zm-9.41 4.9l8.09 2.54c.15.06.14.07 0 .12l-8.08 2.54v1l8.64-2.75c.48-.2.68-.46.68-.84s-.2-.64-.68-.85l-8.64-2.74v1zm9.25 21.43H11.2v-.97h9.24v.97zm-10.73 0h-1v-.98h1v.98zm13.11-6.29c0 1.74-.7 2.7-1.71 2.7a1.75 1.75 0 0 1-1.55-1.18v-1.55c0-2 .75-2.53 1.55-2.53 1.15 0 1.71 1.32 1.71 2.56zm-8.65 2.31a2.1 2.1 0 0 1-2.37-2.27 2.19 2.19 0 0 1 2.38-2.34 2.31 2.31 0 1 1 0 4.61zm4.49-2.41c0 .89.22 2.73-.68 2.73s-.7-1.32-.7-2.6A3 3 0 0 0 14.17 25a3.08 3.08 0 0 0-2.38 1v-1.08H11v3.49a2.89 2.89 0 0 0 3.2 3.06A2.53 2.53 0 0 0 16.66 30c0 .39.2 1.81 1.47 1.78.7 0 1.06-.39 1.2-1.18a2.12 2.12 0 0 0 1.93 1.23c1.32 0 2.38-1.2 2.38-3.61 0-2-.85-3.45-2.53-3.49s-2.44 1-2.44 3.38z"/></svg>